<?xml version="1.0" encoding="utf-8"?>
<svg version="1.1" width="1080" height="1080" viewBox="197.656 189.904 666.602 718.278" xmlns="http://www.w3.org/2000/svg">
  <desc>Created with Fabric.js 5.2.4</desc>
  <rect x="0" y="0" width="100%" height="100%" fill="transparent"/>
  <g transform="matrix(1 0 0 1 540 540)" id="25706a82-3249-4392-b04c-ace69accc0ed"/>
  <g transform="matrix(1 0 0 1 540 540)" id="c025c843-9815-4294-905b-c0ba0bdd8653">
    <rect style="stroke: none; stroke-width: 1; stroke-dasharray: none; stroke-linecap: butt; stroke-dashoffset: 0; stroke-linejoin: miter; stroke-miterlimit: 4; fill: rgb(255,255,255); fill-rule: nonzero; opacity: 1; visibility: hidden;" vector-effect="non-scaling-stroke" x="-540" y="-540" rx="0" ry="0" width="1080" height="1080"/>
  </g>
  <g transform="matrix(1 0 0 1.03 518.96 806.7)">
    <path style="stroke: none; stroke-width: 1; stroke-dasharray: none; stroke-linecap: butt; stroke-dashoffset: 0; stroke-linejoin: miter; stroke-miterlimit: 4; fill: rgb(230,230,230); fill-rule: nonzero; opacity: 1;" vector-effect="non-scaling-stroke" transform=" translate(-578.96, -702.18)" d="M 651.61162 679.71942 C 646.49004 672.54767 639.55693 667.30023 630.8406200000001 665.33631 C 623.24004 663.62372 615.42462 663.9155900000001 607.69853 663.9751600000001 L 510.00615 664.72846 C 501.63945 664.7929700000001 493.61748 672.0415700000001 494.00615 680.72846 C 494.39189 689.34204 501.03789 696.7976100000001 510.00615 696.72846 Q 552.93193 696.39746 595.85723 696.06646 C 602.60381 696.01446 609.3543 695.89275 616.10137 695.91491 C 617.6165 695.91985 619.12529 695.99975 620.63896 696.0169099999999 C 621.00566 696.0210599999999 621.27031 696.0178199999999 621.45732 696.00991 C 621.5042 696.02419 621.5437499999999 696.03725 621.60478 696.05398 C 622.39434 696.27077 623.20439 696.42019 623.99878 696.62612 C 623.72046 696.63442 624.51391 697.12942 624.9123500000001 697.2971200000001 C 624.9670400000001 697.40512 625.08374 697.5965000000001 625.2785600000001 697.89227 C 625.5505600000001 698.40227 626.35571 699.9509300000001 626.3889100000001 699.9021600000001 C 627.5986098851984 702.9609700232597 628.5965698027417 706.0993338114673 629.3757300000001 709.2950500000001 C 631.2351100000001 716.3422300000001 631.6438 717.8153100000001 631.9113800000001 724.427 C 632.2497500000002 732.779 639.0285600000001 740.82483 647.9113800000001 740.427 C 656.2902800000002 740.0517 664.2741700000001 733.38464 663.9113800000001 724.427 C 663.3001 709.33283 660.65068 692.37738 651.61162 679.71942 Z" stroke-linecap="round"/>
  </g>
  <g transform="matrix(1 0 0 1.03 400.05 688.13)">
    <path style="stroke: none; stroke-width: 1; stroke-dasharray: none; stroke-linecap: butt; stroke-dashoffset: 0; stroke-linejoin: miter; stroke-miterlimit: 4; fill: rgb(230,230,230); fill-rule: nonzero; opacity: 1;" vector-effect="non-scaling-stroke" transform=" translate(-460.05, -586.18)" d="M 515.74883 715.82494 C 513.91383 704.7053099999999 512.11406 693.57857 510.24345999999997 682.46542 C 508.34545999999995 671.19125 504.46903999999995 660.8673 495.69559999999996 653.46792 C 493.35137 651.49104 490.92069999999995 649.6452400000001 488.47977999999995 647.80516 C 487.62138999999996 647.15836 486.76444999999995 646.5106 485.91630999999995 645.8495 C 485.86553 645.80998 485.8333099999999 645.7852 485.78930999999994 645.75089 C 485.69604999999996 645.67069 485.58423999999997 645.57538 485.43384999999995 645.44817 C 481.77710999999994 642.35337 478.24384999999995 639.12094 474.87817999999993 635.68499 Q 470.3950299999999 631.1077 466.30346999999995 626.13999 Q 465.2810099999999 624.89928 464.28491999999994 623.63633 C 464.17065999999994 623.49152 463.55542999999994 622.69641 463.15014999999994 622.17758 C 462.77314999999993 621.65831 462.08423999999997 620.72058 461.9685099999999 620.55685 Q 460.80470999999994 618.9111600000001 459.6823799999999 617.23485 C 454.58630912849776 609.5996587685078 450.1735470874721 601.5298992422522 446.49537999999984 593.11936 Q 445.9482499999999 591.8681700000001 445.4270199999999 590.60229 C 445.3337599999999 590.3447500000001 445.2131499999999 590.01395 445.0530199999999 589.57353 C 444.31180999999987 587.5352 443.5720199999999 585.49935 442.8943299999999 583.43688 Q 440.7344099999999 576.8657999999999 439.1804599999999 570.10068 Q 438.4121399999999 566.76019 437.7971599999999 563.3857800000001 Q 437.4800099999999 561.6504900000001 437.2038999999999 559.9080100000001 C 437.1736199999999 559.7151600000001 436.99389999999994 558.46184 436.8879799999999 557.7536500000001 C 436.8098499999999 557.0420300000001 436.6643399999999 555.7821000000001 436.6448099999999 555.58747 Q 436.4690399999999 553.8310100000001 436.3328099999999 552.07113 Q 436.0259299999999 548.1110100000001 435.91780999999986 544.1376700000001 Q 435.7332499999999 537.0763000000001 436.17073999999985 530.0159600000001 C 436.33673999999985 527.3713 436.57308999999987 524.73351 436.86409999999984 522.10067 C 436.88167999999985 521.93889 436.89534999999984 521.81021 436.90804999999983 521.69425 C 436.92562999999984 521.57669 436.9461299999998 521.44313 436.97054999999983 521.2769 C 437.1858799999998 519.8218999999999 437.41243999999983 518.3688999999999 437.66585999999984 516.9204599999999 C 438.625554750342 511.42087971223486 439.8736970355865 505.975552486581 441.40511999999984 500.60702 Q 442.49276999999984 496.7984399999999 443.76790999999986 493.0516399999999 Q 444.33626999999984 491.3883899999999 444.94075999999984 489.73786999999993 C 444.91438999999986 489.80886999999996 446.1228899999998 486.72212999999994 446.13899999999984 486.61841999999996 C 450.93392999999986 475.28935999999993 458.77669999999983 464.96142 458.78743999999983 452.09198999999995 C 458.79476999999986 443.37866999999994 451.42317999999983 435.03192999999993 442.78743999999983 435.43459999999993 C 433.83819200900325 435.7714576987422 426.76387581114693 443.1364354419303 426.78743999999983 452.09198999999995 C 426.78743999999983 452.28763999999995 426.78643999999986 452.45456999999993 426.7859799999998 452.61659999999995 C 426.7054099999998 452.88786999999996 426.63802999999984 453.11420999999996 426.5774799999998 453.31436999999994 C 425.6424199999998 455.3463699999999 424.4969099999998 457.27721999999994 423.47054999999983 459.25874999999996 C 420.65999999999985 464.68219999999997 418.26106999999985 470.28356999999994 415.98226999999986 475.96716999999995 C 412.25166431881985 485.222719153929 409.3960951444312 494.80732143274355 407.4529699999999 504.59542000000005 C 403.22943399056084 526.0416880851058 402.9016149543736 548.0731753178491 406.4851999999999 569.6356099999999 C 412.68880999999993 607.44841 433.14681999999993 643.64461 461.5881999999999 667.97489 C 464.0564599999999 670.08623 466.5847799999999 672.1265999999999 469.1370299999999 674.12578 C 470.1931799999999 674.95292 471.2581199999999 675.76487 472.32843999999994 676.57155 C 472.8342999999999 676.95294 474.92999999999995 678.60555 474.00811999999996 677.80486 C 475.99055 679.49669 476.82501999999994 680.34816 477.3343 681.5943 C 477.40803 681.8819 477.50861 682.27192 477.64484 682.80518 C 478.00372999999996 684.21056 478.34454999999997 685.6126899999999 478.62775 687.0377699999999 C 481.10334 699.4891999999999 482.82403999999997 712.1493599999999 484.89191 724.6813599999999 C 486.31329999999997 733.2919999999999 496.91391 738.89623 504.57403999999997 736.3155599999999 C 513.49 733.31151 517.27178 725.05119 515.74883 715.82494 Z" stroke-linecap="round"/>
  </g>
  <g transform="matrix(1 0 0 1.03 520.57 648.3)">
    <path style="stroke: none; stroke-width: 1; stroke-dasharray: none; stroke-linecap: butt; stroke-dashoffset: 0; stroke-linejoin: miter; stroke-miterlimit: 4; fill: rgb(63,61,86); fill-rule: nonzero; opacity: 1;" vector-effect="non-scaling-stroke" transform=" translate(-580.57, -547.19)" d="M 653.23 748.12012 C 639.2389522540739 748.1564972798764 627.8585338281318 736.8610474771239 627.79006 722.87012 L 627.79006 704.61865 C 608.6811700000001 706.75781 543.24685 706.26221 524.4902500000001 703.24854 L 524.4902500000001 722.1401400000001 C 524.3854677865445 736.1159385104927 513.0262563022878 747.3903046446629 499.0500650000001 747.3903046446629 C 485.0738736977124 747.3903046446629 473.71466221345565 736.1159385104927 473.6098800000001 722.1401400000001 L 473.6098800000001 685.04834 C 421.87984800842145 656.3104763675966 389.7436745744055 601.8365329457647 389.6098800000001 542.66016 C 389.6098800000001 492.83008 412.19288000000006 446.3457 451.56862000000007 415.12646 C 477.170320090641 394.7591568594274 508.27618162991115 382.51032134355285 540.89113 379.95313 C 545.3181300000001 379.60596 549.7719900000001 379.43018 554.1299000000001 379.43018 C 569.4822000000001 379.43018 638.7485600000001 381.80176 656.1277100000001 386.80176 L 695.75562 347.48 C 696.9472870927789 346.2815579682521 698.7455747078047 345.923188888681 700.30562 346.57326 C 701.8785660669714 347.1990541179818 702.9052502570114 348.72714701873684 702.8901 350.41994 L 702.8901 356.67194 L 710.60641 349.02985 C 711.7957938115518 347.8300429333984 713.5937262831164 347.470878004378 715.15279 348.12164 C 716.7270627665945 348.74709671973386 717.7549822620476 350.2758856222723 717.74019 351.96979 L 717.74019 421.83453 C 758.1241883495838 458.24139268207045 777.6613135260725 512.4094936571655 769.8137664666007 566.2123093660084 C 761.9662194071288 620.0151250748513 727.7705747098273 666.3458957045937 678.66988 689.70074 L 678.66988 722.87018 C 678.6013732320566 736.861060528681 667.2210010450108 748.156464237369 653.23 748.12012 Z M 629.79 702.35059 L 629.79 722.87012 C 629.895001826207 735.7410280637565 640.3586036370119 746.1196152244061 653.2299399999999 746.1196152244061 C 666.101276362988 746.1196152244061 676.5648781737929 735.7410280637565 676.6698799999999 722.87012 L 676.6698799999999 688.4375 L 677.24088 688.1665 C 704.3685195778398 675.2937663604725 727.39775903342 655.1545267143545 743.7716399999999 629.98486 C 786.8852717224145 563.617324615769 775.1211090420138 475.71914162232315 716.07242 423.02486000000005 L 715.74014 422.72652 L 715.74014 351.96973 C 715.7547958903746 351.0892100363893 715.2193102994671 350.2927959924101 714.39835 349.97412 C 713.5829707939607 349.62543416600596 712.6371473492519 349.8133596548522 712.017 350.44727 L 700.8900000000001 361.46777000000003 L 700.8900000000001 350.41992 C 700.9046500948407 349.5394011536458 700.3691607562471 348.74299146211405 699.5482000000001 348.42431999999997 C 698.7309061617577 348.07620247611555 697.7837348180949 348.26544216819644 697.16295 348.90088 L 656.68663 389.06444999999997 L 656.11143 388.88428 C 639.9554300000001 383.82764 569.59874 381.43018 554.1297400000001 381.43018 C 549.82383 381.43018 545.4224700000001 381.604 541.0482000000001 381.94727 C 508.82956900811706 384.4731242523113 478.10169245101093 396.5732153975056 452.81138000000004 416.6933600000001 C 413.91685000000007 447.53125 391.6097200000001 493.44435999999996 391.6097200000001 542.66016 C 391.7451451577084 601.3200931410062 423.7129859590541 655.2831009081586 475.094 683.585 L 475.60987 683.8706500000001 L 475.60987 722.1401800000001 C 475.7171885957317 735.0095687977449 486.1802187419697 745.3857109083884 499.050055 745.3857109083884 C 511.91989125803025 745.3857109083884 522.3829214042682 735.0095687977449 522.49024 722.1401800000001 L 522.49024 700.85449 L 523.6750599999999 701.0771500000001 C 540.53077 704.24854 611.5068499999999 704.74854 628.6599199999999 702.49854 Z" stroke-linecap="round"/>
  </g>
  <g transform="matrix(1 0 0 1.03 399.59 394.64)">
    <path style="stroke: none; stroke-width: 1; stroke-dasharray: none; stroke-linecap: butt; stroke-dashoffset: 0; stroke-linejoin: miter; stroke-miterlimit: 4; fill: rgb(108,99,255); fill-rule: nonzero; opacity: 1;" vector-effect="non-scaling-stroke" transform=" translate(-459.59, -300.62)" d="M 517.66016 270.53 L 406.91992 303.81 C 399.58562452656815 306.0229502634041 395.4303176128613 313.758839523987 397.63500581282057 321.0956228042034 C 399.83969401277983 328.4324060844198 407.57089822018725 332.5964233397236 414.91016 330.4 L 511.81982000000005 301.27 L 513.8501 300.65995 C 514.26092642061 290.19849328660797 517.0990108325311 279.9759117980718 522.1401 270.79994999999997 C 521.5074399270524 270.5153208310667 520.8312759271839 270.33951819110086 520.1401 270.27995 C 519.3050525542085 270.1991004607828 518.4622594308479 270.2840784927095 517.66016 270.53 Z" stroke-linecap="round"/>
  </g>
  <g transform="matrix(1 0 0 1.03 394.61 399.26)">
    <path style="stroke: none; stroke-width: 1; stroke-dasharray: none; stroke-linecap: butt; stroke-dashoffset: 0; stroke-linejoin: miter; stroke-miterlimit: 4; fill: rgb(47,46,65); fill-rule: nonzero; opacity: 1;" vector-effect="non-scaling-stroke" transform=" translate(-454.61, -305.11)" d="M 412.995 337.49524 C 409.9804292299895 337.48784290540146 407.3078679879658 335.5547221751469 406.35719 332.69397000000004 L 399.43238 311.79797 C 398.84823982595975 310.03562171210336 398.9882188596239 308.1133943706652 399.82151533248833 306.454265617647 C 400.6548118053528 304.79513686462883 402.11314675042917 303.5350530301134 403.87562 302.95129000000003 L 494.00684 273.08117000000004 C 495.7690131266883 272.49702233925433 497.6910659837998 272.63683855089874 499.35014979418276 273.4698592757924 C 501.00923360456574 274.30288000068606 502.26943804207394 275.76086509466114 502.85352 277.52306000000004 L 509.77833 298.41906000000006 C 510.976111561576 301.99212422632706 509.11948968255575 305.87054194212453 505.58520999999996 307.17834000000005 Q 505.46034 307.22522000000004 505.33302 307.26672 L 415.20387 337.13586000000004 C 414.4916050580322 337.3732857434504 413.745794217341 337.49462810399115 412.995 337.49524 Z" stroke-linecap="round"/>
  </g>
  <g transform="matrix(1 0 0 1.03 523.93 397.67)">
    <path style="stroke: none; stroke-width: 1; stroke-dasharray: none; stroke-linecap: butt; stroke-dashoffset: 0; stroke-linejoin: miter; stroke-miterlimit: 4; fill: rgb(63,61,86); fill-rule: nonzero; opacity: 1;" vector-effect="non-scaling-stroke" transform=" translate(-581.79, -303.42)" d="M 581.79 233.42 C 543.9725592991574 233.43462422961267 512.9976855758608 263.4709051234796 511.81978 301.2700000000001 C 511.79978 301.97999999999996 511.78999999999996 302.7 511.78999999999996 303.41999999999996 C 511.78999999999996 342.0799324881555 543.1300675118445 373.41999999999996 581.79 373.41999999999996 C 620.4499324881555 373.41999999999996 651.79 342.0799324881555 651.79 303.41999999999996 C 651.79 264.7600675118444 620.4499324881555 233.41999999999996 581.79 233.41999999999996 Z M 581.79 371.41999999999996 C 544.2508588027886 371.38086597906704 513.8291340209329 340.95914119721135 513.79 303.41999999999996 Q 513.79 302.025 513.85006 300.65999999999997 C 515.360892911292 263.4953256028166 546.4524866941296 234.44123077906045 583.63420423823 235.4489607057906 C 620.8159217823306 236.45669063252075 650.288130967617 267.1522361680462 649.783688602734 304.34418660137266 C 649.2792462378509 341.53613703469915 618.9853711905903 371.42106240863575 581.79 371.42 Z" stroke-linecap="round"/>
  </g>
  <g transform="matrix(1 0 0 1.03 521.79 397.63)">
    <path style="stroke: none; stroke-width: 1; stroke-dasharray: none; stroke-linecap: butt; stroke-dashoffset: 0; stroke-linejoin: miter; stroke-miterlimit: 4; fill: rgb(230,230,230); fill-rule: nonzero; opacity: 1;" vector-effect="non-scaling-stroke" transform=" translate(-581.79, -303.42)" d="M 640.79 303.42 C 640.79 336.00480024001683 614.3748002400167 362.42 581.79 362.42 C 549.2051997599831 362.42 522.79 336.00480024001683 522.79 303.42 C 522.79 301.55 522.87984 299.71000000000004 523.04976 297.89000000000004 C 526.0031718727369 266.52024423018736 553.0842662687852 243.00701324586245 584.5580487384422 244.4852675543062 C 616.0318312080991 245.96352186274996 640.7898404361545 271.9115214787788 640.79 303.42 Z" stroke-linecap="round"/>
  </g>
  <g transform="matrix(1 0 0 1.03 521.79 397.53)">
    <path style="stroke: none; stroke-width: 1; stroke-dasharray: none; stroke-linecap: butt; stroke-dashoffset: 0; stroke-linejoin: miter; stroke-miterlimit: 4; fill: rgb(108,99,255); fill-rule: nonzero; opacity: 1;" vector-effect="non-scaling-stroke" transform=" translate(-581.79, -303.42)" d="M 599.35986 307.34 C 597.9297132307548 305.45970522163503 596.0484642703599 303.97045019605605 593.89014 303.01 C 591.2280148688676 301.88804989454803 588.4788307803603 300.98505739082316 585.6699199999999 300.31 L 585.6699199999999 284.25 C 589.9875998361827 284.9009823337772 594.0369425743652 286.7472704066427 597.3598599999999 289.58 L 600.6201199999999 282.63 C 598.7450476062888 280.9595965475488 596.5925752045733 279.62960424543616 594.2597699999999 278.7 C 591.6742353338657 277.65302931705975 588.9601940589407 276.95684793045126 586.1899399999999 276.63 L 586.1899399999999 268.49 L 578.6401399999999 268.49 L 578.6401399999999 276.71000000000004 C 575.7247413617517 277.0374728195221 572.9124334429684 277.9817265086166 570.3901399999999 279.48 C 568.1116263168607 280.8285824409071 566.1935306896635 282.7088194277524 564.7997999999999 284.96000000000004 C 563.469775860114 287.15693032205945 562.7805793944941 289.6820050727149 562.8100599999999 292.25000000000006 C 562.680138252849 295.0328711609747 563.4863827944832 297.7790316084624 565.1000599999999 300.05000000000007 C 566.585344840305 302.0161893146184 568.5468851757915 303.5717382586679 570.7997599999999 304.57000000000005 C 573.5043622901743 305.7250244961165 576.3009152450256 306.6515936492317 579.1601199999999 307.34000000000003 L 579.1601199999999 322.73 C 574.0650341168496 322.3456781721074 569.2102242762527 320.40865716759316 565.25 317.18 L 561.99023 324.14 C 564.2045301365185 325.9706619467719 566.7226297697722 327.3989484879893 569.43018 328.36 C 572.3969384924505 329.42169684352035 575.4963229911752 330.0678226022122 578.64018 330.28000000000003 L 578.64018 338.35 L 586.18998 338.35 L 586.18998 330.13 C 590.3835497968297 329.67176152817353 594.3161808202814 327.8685747787943 597.39998 324.99 C 600.1456362400677 322.35683145693883 601.6618719587683 318.69335745369585 601.58016 314.89 C 601.7054969074409 312.1958165887813 600.9237187111264 309.53742565864843 599.35986 307.34 Z M 579.16016 298.60999999999996 C 577.3210246247356 298.0522860855834 575.6111204715303 297.1344959797335 574.1298800000001 295.90999999999997 C 572.9416564012415 294.8527309617492 572.2887523591543 293.319317339883 572.3501000000001 291.72999999999996 C 572.2955494093894 289.9488963471712 572.9500617649182 288.2189425989468 574.1699200000002 286.91999999999996 C 575.5224045228132 285.5572112248507 577.2672829903437 284.651596418568 579.1601600000001 284.33 Z M 590.41016 319.89 C 589.1343409184086 321.1983447761012 587.4731990369901 322.0639170777365 585.66992 322.36 L 585.66992 309.12 C 587.3935817102856 309.58244876588043 589.0059593479778 310.3885967671062 590.41016 311.49 C 591.4883231010936 312.410948440113 592.0882607423663 313.77287034400103 592.04004 315.19 C 592.1094785467711 316.9062350321259 591.5272327492538 318.58522688939854 590.41016 319.89 Z" stroke-linecap="round"/>
  </g>
  <g transform="matrix(1 0 0 1.03 413.38 488.74)">
    <path style="stroke: none; stroke-width: 1; stroke-dasharray: none; stroke-linecap: butt; stroke-dashoffset: 0; stroke-linejoin: miter; stroke-miterlimit: 4; fill: rgb(47,46,65); fill-rule: nonzero; opacity: 1;" vector-effect="non-scaling-stroke" transform=" translate(-473.38, -392.34)" d="M 416.209 422.18421 C 413.03060702104256 422.1789402377419 410.25193112927747 420.0397412281794 409.434 416.96839 L 405.66386 402.69839 C 404.68125462264527 398.9638559888748 406.906765079022 395.13861045556774 410.63895 394.14712000000003 L 529.5796300000001 362.71743000000004 C 533.3162751465791 361.7424303377531 537.1382725509415 363.97070711939705 538.1306300000001 367.70278 L 541.3244800000001 379.79262 L 540.7260900000001 379.83901 C 510.22151809504135 382.2108853910313 481.0346274284992 393.27075363973324 456.6185500000001 411.71011000000004 L 456.44509000000016 411.79411 L 417.98488000000015 421.95378 C 417.40530678035833 422.10671285417857 416.8084110214468 422.1841632954956 416.209 422.18421 Z" stroke-linecap="round"/>
  </g>
  <g transform="matrix(1 0 0 1.03 300.62 551.24)">
    <path style="stroke: none; stroke-width: 1; stroke-dasharray: none; stroke-linecap: butt; stroke-dashoffset: 0; stroke-linejoin: miter; stroke-miterlimit: 4; fill: rgb(63,61,86); fill-rule: nonzero; opacity: 1;" vector-effect="non-scaling-stroke" transform=" translate(-360.62, -453.19)" d="M 396.51011 492.6705 C 382.55773644816395 490.60916403686593 369.21382017803484 485.5638062641669 357.38794 477.87834 C 351.529154901583 474.0735525753586 346.105405336652 469.63757696769835 341.214 464.65 C 336.38614 459.72566 331.7675 454.12878 329.37619 447.57079999999996 C 327.0754389636895 441.5034093788068 327.19402410922663 434.78393053528015 329.70743 428.8015 C 332.18656565341763 422.85568262033036 336.922252975007 418.1355414673181 342.87619 415.67596999999995 C 348.86580000000004 413.2873599999999 356.10238 413.03184999999996 361.9316 415.64775999999995 C 364.7093550925847 416.86528060595106 367.11305501751684 418.80010523189236 368.89593 421.25359999999995 C 369.724687020722 422.3847268638711 370.3383288444747 423.65863956140987 370.70623 425.0117599999999 C 371.04763463380795 426.2379123274743 371.0786868408756 427.52973019058106 370.79659 428.77086999999995 C 370.10506293342485 431.27771001892927 368.36485177192253 433.3639016444577 366.02270999999996 434.49386999999996 C 363.4748838744243 435.8009797982159 360.7142433792912 436.64293095649776 357.87060999999994 436.98013 C 355.0104799999999 437.37012999999996 350.90192999999994 437.72497999999996 348.6026099999999 435.42913 C 348.1292994291659 434.974912221471 347.75700897720344 434.42605971498045 347.50999999999993 433.81834 C 347.33716076747794 433.35299983550004 347.2780585288134 432.8530856857748 347.33761999999996 432.36026999999996 C 347.30407999999994 432.57750999999996 347.47633999999994 431.88791 347.46653 431.91540999999995 C 347.43017 432.01734999999996 347.27268999999995 432.26580999999993 347.49652999999995 431.88406 C 347.5664634668991 431.75824300633576 347.6443237811971 431.6369985548315 347.72963999999996 431.52106 C 347.65363999999994 431.61933 347.48672999999997 431.78333 347.78479 431.50194 C 348.0310865460399 431.2323898989302 348.3477190040799 431.03692190190264 348.69906 430.93753 C 348.83747 430.89721 348.97789 430.86510999999996 349.11668999999995 430.8272 C 349.46945999999997 430.73083 348.76507999999995 430.83246 349.12598999999994 430.82089 C 349.26525999999996 430.81643 349.40619999999996 430.81989000000004 349.5449899999999 430.81363000000005 C 349.8989899999999 430.79772 349.19571999999994 430.71708000000007 349.53498999999994 430.80237000000005 C 349.66671999999994 430.83549000000005 349.79720999999995 430.86784000000006 349.92698999999993 430.9087200000001 C 350.20906999999994 430.99759000000006 349.7272499999999 430.7017900000001 349.9183999999999 430.92318000000006 C 350.1423999999999 431.1826300000001 349.6831899999999 430.6708300000001 349.9377999999999 430.92199000000005 C 350.0644961900645 431.0464494292585 350.1839173538963 431.17810419233757 350.2954699999999 431.31630000000007 C 351.21430137716146 432.22341923854924 352.69163862283835 432.22341923854924 353.6104699999999 431.31630000000007 C 354.4965200913282 430.38892098740797 354.4965200913282 428.92867901259217 353.6104699999999 428.00130000000007 C 351.2990699999999 425.1359500000001 346.7333999999999 425.84395000000006 344.3951899999999 428.2656600000001 C 341.4131899999999 431.3541400000001 342.5940799999999 436.2488400000001 345.4947299999999 438.9436600000001 C 348.7784299999999 441.9944200000001 353.4291299999999 442.20650000000006 357.6530699999999 441.6948000000001 C 361.22278898723584 441.3528687170386 364.70155136283773 440.3697942735098 367.9222499999999 438.7928000000001 C 371.1223826061619 437.22037168803274 373.6252465923435 434.5164768397948 374.9462499999999 431.2046300000001 C 376.15260228312854 427.62935979003714 375.7679654805549 423.7084281282134 373.8898399999999 420.4357400000001 C 370.16053999999986 413.4245600000001 362.43831999999986 409.8299900000001 354.8054699999999 409.20737000000014 C 346.8678569673429 408.5856058929494 339.0113340187589 411.16478399795244 332.9866799999999 416.37015000000014 C 327.2376803601733 421.5457875606808 323.69758340792066 428.7328693930501 323.09845999999993 436.4451500000001 C 322.4321999999999 444.4411500000001 325.53453999999994 452.2064300000001 330.05767999999995 458.6594700000001 C 334.79288636146606 465.21597127346763 340.44350148357165 471.05983849421125 346.83711999999997 476.01277000000005 C 359.3365176451398 485.99188570361235 373.9983011462536 492.9065782840518 389.64912 496.2034800000001 Q 392.44149 496.7803300000001 395.26385999999997 497.1910600000001 C 396.5064961982986 497.4922198232542 397.76912992975394 496.7753208583264 398.14727999999997 495.5539100000001 C 398.4816881585443 494.30681182413633 397.7524007446222 493.02236240689837 396.51012 492.6704800000001 Z" stroke-linecap="round"/>
  </g>
  <g transform="matrix(1 0 0 1.03 529.1 494.99)">
    <path style="stroke: none; stroke-width: 1; stroke-dasharray: none; stroke-linecap: butt; stroke-dashoffset: 0; stroke-linejoin: miter; stroke-miterlimit: 4; fill: rgb(204,204,204); fill-rule: nonzero; opacity: 1;" vector-effect="non-scaling-stroke" transform=" translate(-589.1, -398.51)" d="M 619.8954 390.79425 Q 589.2323 390.36147 558.7624 392.35058999999995 C 551.8190999999999 392.80396999999994 545.8116799999999 395.25800999999996 545.8116799999999 399.38264999999996 C 545.8116799999999 402.83119999999997 551.77132 406.87122999999997 558.7624 406.41464999999994 Q 589.21683 404.42594999999994 619.8954 404.85831999999994 C 636.56931 405.09367 636.55948 391.02941 619.8954 390.79425 Z" stroke-linecap="round"/>
  </g>
  <g transform="matrix(1 0 0 1.03 529.68 493.35)">
    <path style="stroke: none; stroke-width: 1; stroke-dasharray: none; stroke-linecap: butt; stroke-dashoffset: 0; stroke-linejoin: miter; stroke-miterlimit: 4; fill: rgb(63,61,86); fill-rule: nonzero; opacity: 1;" vector-effect="non-scaling-stroke" transform=" translate(-589.68, -396.91)" d="M 589.68169 404.16175 C 587.47246 404.16175 535.57598 404.07923 535.57598 396.91075 C 535.57598 389.74275 587.47246 389.66026 589.68169 389.66026 C 591.89092 389.66026 643.7874 389.74278 643.7874 396.91075 C 643.7874 404.07923 591.89092 404.16175 589.68169 404.16175 Z M 537.60527 396.91075 C 539.02544 399.08409 558.10161 402.16175 589.68169 402.16175 C 621.26177 402.16175 640.33769 399.08411 641.7581 396.91075 C 640.33794 394.7379 621.2617700000001 391.66026 589.68169 391.66026 C 558.1016099999999 391.66026 539.02544 394.73792 537.60527 396.91077 Z" stroke-linecap="round"/>
  </g>
  <g transform="matrix(1 0 0 1.03 718.21 633.66)">
    <path style="stroke: none; stroke-width: 1; stroke-dasharray: none; stroke-linecap: butt; stroke-dashoffset: 0; stroke-linejoin: miter; stroke-miterlimit: 4; fill: rgb(63,61,86); fill-rule: nonzero; opacity: 1;" vector-effect="non-scaling-stroke" transform=" translate(-778.21, -533.46)" d="M 754.33555 592.61209 C 765.82386 592.29309 780.12167 591.89433 791.13655 583.84802 C 797.7758852122009 578.7992293872003 801.8459561897544 571.0754889270398 802.2570700000001 562.7447 C 802.4819000000001 556.3901099999999 800.1860700000001 550.84321 795.7921900000001 547.13062 C 790.0391300000001 542.26919 781.6381900000001 541.12893 772.5848100000001 543.78954 L 781.96481 475.24154 L 775.0791300000001 474.29811 L 764.052 554.885 L 769.80209 552.24644 C 776.46846 549.18878 785.6194 547.63279 791.30587 552.43818 C 794.1362526586491 554.9846811116382 795.6174345546506 558.70528464036 795.31163 562.50031 C 794.9705536968219 568.6983894427401 791.9501680392 574.4415387078058 787.0366300000001 578.23491 C 778.46473 584.49617 767.0680500000001 585.30385 754.1421200000001 585.66527 Z" stroke-linecap="round"/>
  </g>
  <g transform="matrix(1 0 0 1.03 656.58 583.34)">
    <rect style="stroke: none; stroke-width: 1; stroke-dasharray: none; stroke-linecap: butt; stroke-dashoffset: 0; stroke-linejoin: miter; stroke-miterlimit: 4; fill: rgb(63,61,86); fill-rule: nonzero; opacity: 1;" vector-effect="non-scaling-stroke" x="-18.715" y="-3.475" rx="0" ry="0" width="37.43" height="6.95"/>
  </g>
  <g transform="matrix(1 0 0 1.03 432.78 527.72)">
    <path style="stroke: none; stroke-width: 1; stroke-dasharray: none; stroke-linecap: butt; stroke-dashoffset: 0; stroke-linejoin: miter; stroke-miterlimit: 4; fill: rgb(47,46,65); fill-rule: nonzero; opacity: 1;" vector-effect="non-scaling-stroke" transform=" translate(-492.78, -430.34)" d="M 433.14751 454.15 C 429.7058602591855 454.1389948295419 426.7808886638991 451.6319755775611 426.24351 448.23251999999997 L 423.95867 433.651 C 423.36446760970955 429.8325330037536 425.97361767194036 426.25376325086387 429.79082 425.65149 L 551.32231 406.609 C 555.1405772850301 406.01496869751685 558.7190731742741 408.62401833198004 559.32131 412.441 L 561.60598 427.02299999999997 C 562.2004151940091 430.84140214012825 559.5913656862119 434.42025935525675 555.7741900000001 435.02252 L 434.2426900000001 454.06452 C 433.8803874674986 454.12127186356554 433.51423043414695 454.149850821555 433.14751 454.15 Z" stroke-linecap="round"/>
  </g>
  <g transform="matrix(1 0 0 1.03 322.85 324.59)">
    <circle style="stroke: none; stroke-width: 1; stroke-dasharray: none; stroke-linecap: butt; stroke-dashoffset: 0; stroke-linejoin: miter; stroke-miterlimit: 4; fill: rgb(108,99,255); fill-rule: nonzero; opacity: 1;" vector-effect="non-scaling-stroke" cx="0" cy="0" r="51"/>
  </g>
  <g transform="matrix(1 0 0 1.03 352.01 321.69)">
    <path style="stroke: none; stroke-width: 1; stroke-dasharray: none; stroke-linecap: butt; stroke-dashoffset: 0; stroke-linejoin: miter; stroke-miterlimit: 4; fill: rgb(47,46,65); fill-rule: nonzero; opacity: 1;" vector-effect="non-scaling-stroke" transform=" translate(-412.02, -229.57)" d="M 411.727 245.46306 C 413.3569596736021 244.89296087930333 414.8459537666796 243.98045949907535 416.09385 242.78692 C 417.7651281365248 241.06443006347965 418.59033442832623 238.69174467053207 418.3486 236.30392 C 418.20799644188105 234.5995750252819 417.2786083180298 233.05899181596556 415.83651 232.1398 C 413.99080999999995 231.00475 411.55192 231.04763 409.08959 232.1891 L 408.80539 212.28123 L 406.8057 212.30969 L 407.1397 235.71349999999998 L 408.66201 234.71506 C 410.4273 233.55918 412.96378 232.72099 414.78864 233.84349 C 415.70348884890484 234.4458330502313 416.2851106749601 235.44035234874826 416.36154999999997 236.53302 C 416.5317997893723 238.31127968622243 415.91994411237226 240.07562549873853 414.68528999999995 241.36668 C 412.51734999999996 243.51779 409.30844999999994 244.23857 405.64604999999995 244.8978 L 406.00046999999995 246.86594 C 407.9473862538372 246.57030795874283 409.86389393916266 246.1008036862446 411.727 245.46306 Z" stroke-linecap="round"/>
  </g>
  <g transform="matrix(0.99 -0.15 0.15 1.02 364.22 304.3)">
    <rect style="stroke: none; stroke-width: 1; stroke-dasharray: none; stroke-linecap: butt; stroke-dashoffset: 0; stroke-linejoin: miter; stroke-miterlimit: 4; fill: rgb(47,46,65); fill-rule: nonzero; opacity: 1;" vector-effect="non-scaling-stroke" x="-5.385" y="-1" rx="0" ry="0" width="10.77" height="2"/>
  </g>
  <g transform="matrix(0.99 -0.15 0.15 1.02 330.6 309.52)">
    <rect style="stroke: none; stroke-width: 1; stroke-dasharray: none; stroke-linecap: butt; stroke-dashoffset: 0; stroke-linejoin: miter; stroke-miterlimit: 4; fill: rgb(47,46,65); fill-rule: nonzero; opacity: 1;" vector-effect="non-scaling-stroke" x="-5.385" y="-1" rx="0" ry="0" width="10.77" height="2"/>
  </g>
  <g transform="matrix(1 0 0 1.03 378.07 463.7)">
    <path style="stroke: none; stroke-width: 1; stroke-dasharray: none; stroke-linecap: butt; stroke-dashoffset: 0; stroke-linejoin: miter; stroke-miterlimit: 4; fill: rgb(47,46,65); fill-rule: nonzero; opacity: 1;" vector-effect="non-scaling-stroke" transform=" translate(-438.07, -367.72)" d="M 416.55474 453.25843 C 412.7993149264693 453.25042058875806 409.44082409810335 450.91903397788445 408.12028999999995 447.40342999999996 L 372.9572 353.2345 C 364.0084683532301 329.18734669389556 376.2142002450476 302.4344726831155 400.24138 293.43225 L 428.83306 282.756 C 431.0660705071777 281.9165433571435 433.5416880419007 282.0024838778966 435.71110999999996 282.99476999999996 C 437.8755788436351 283.96186021232035 439.5603762344251 285.7585219431411 440.38651999999996 287.98060999999996 L 505.523 410.96448 C 506.37716181230905 413.20435358779093 506.3025981721944 415.6924138299947 505.31583804580555 417.87711759569373 C 504.3290779194167 420.0618213613928 502.5116412329537 421.76268214228 500.26641 422.60265999999996 L 419.7 452.68665 C 418.6942387387964 453.063907259194 417.6289271423747 453.2575713329437 416.55474 453.25843 Z" stroke-linecap="round"/>
  </g>
  <g transform="matrix(1 0 0 1.03 392.47 421.77)">
    <path style="stroke: none; stroke-width: 1; stroke-dasharray: none; stroke-linecap: butt; stroke-dashoffset: 0; stroke-linejoin: miter; stroke-miterlimit: 4; fill: rgb(230,230,230); fill-rule: nonzero; opacity: 1;" vector-effect="non-scaling-stroke" transform=" translate(-452.47, -327)" d="M 420.15839 285.99487 L 484.78739 372.42053 L 441.05579 286.902 C 440.3263558358629 284.8867852966207 438.82609092858763 283.2439784008409 436.8851743021038 282.3351290461263 C 434.9442576756199 281.42627969141176 432.72175293686337 281.32587065283366 430.70679 282.056 Z" stroke-linecap="round"/>
  </g>
  <g transform="matrix(1 0 0 1.03 402.23 428.9)">
    <path style="stroke: none; stroke-width: 1; stroke-dasharray: none; stroke-linecap: butt; stroke-dashoffset: 0; stroke-linejoin: miter; stroke-miterlimit: 4; fill: rgb(108,99,255); fill-rule: nonzero; opacity: 1;" vector-effect="non-scaling-stroke" transform=" translate(-462.23, -334.05)" d="M 522.49036 351.63 L 407.09511 344.19688 C 399.4455575241286 343.7041729675572 393.64378796755716 337.1035674758714 394.13649499999997 329.454015 C 394.6292020324428 321.80446252412867 401.2298075241286 316.0026929675572 408.87935999999996 316.4954 L 524.2746599999999 323.92798 C 525.9950129536259 324.0386332674311 527.6009321202182 324.8282179788953 528.7390789426117 326.1230076302744 C 529.8772257650053 327.41779728165346 530.4543531453163 329.1117112030502 530.3434799999999 330.83205 L 529.3949799999999 345.56124 C 529.1639380561795 349.1436290275239 526.0727788920701 351.86057841630725 522.4903599999999 351.63 Z" stroke-linecap="round"/>
  </g>
  <g transform="matrix(1 0 0 1.03 385.08 428.62)">
    <path style="stroke: none; stroke-width: 1; stroke-dasharray: none; stroke-linecap: butt; stroke-dashoffset: 0; stroke-linejoin: miter; stroke-miterlimit: 4; fill: rgb(47,46,65); fill-rule: nonzero; opacity: 1;" vector-effect="non-scaling-stroke" transform=" translate(-445.08, -333.76)" d="M 491.65508 356.39514 Q 491.42656 356.39514 491.19683 356.38050000000004 L 491.19658 356.38050000000004 L 396.44048 350.27698000000004 C 394.58778723804096 350.1578731654791 392.85831470747314 349.30758099630356 391.63260898441 347.9131985564058 C 390.4069032613469 346.51881611650805 389.78539193486995 344.6945914379088 389.90483 342.84192 L 391.52519 317.68372 C 391.6445412525547 315.831002906049 392.49504353436254 314.1015945731083 393.8895718644279 312.87599427596825 C 395.28410019449325 311.65039397882816 397.10840565947507 311.0290109376671 398.96111 311.14856 L 493.71711000000005 317.25156 C 497.572878044534 317.50419677653235 500.4965111914654 320.83029584704434 500.25251000000003 324.68662 L 498.63239000000004 349.84531 C 498.4500476887165 352.59883110590965 496.6711449619559 354.99000030413004 494.08625000000006 355.95615 C 493.30871750504156 356.24699744648103 492.4852298133628 356.39569246236647 491.65508 356.39514 Z" stroke-linecap="round"/>
  </g>
  <g transform="matrix(1 0 0 1.03 313.45 299.91)">
    <path style="stroke: none; stroke-width: 1; stroke-dasharray: none; stroke-linecap: butt; stroke-dashoffset: 0; stroke-linejoin: miter; stroke-miterlimit: 4; fill: rgb(47,46,65); fill-rule: nonzero; opacity: 1;" vector-effect="non-scaling-stroke" transform=" translate(-373.46, -208.19)" d="M 382.26706 198.35294 C 388.97629 192.58263 398.18964 197.74455 405.88379000000003 196.84094 C 413.24493 195.97638999999998 419.05748000000006 189.37340999999998 420.54236000000003 182.35857 C 422.27471 174.17457 418.02683 165.97537999999997 411.76573 160.87279999999998 C 404.90828 155.28421999999998 395.81359000000003 153.67987 387.19531 154.7138 C 377.31764 155.8988 368.28408 160.50315 360.17831 166.07234 C 352.3542360067542 171.28145540834365 345.1591765102346 177.37838918544176 338.73667 184.24151 C 332.98556 190.59317000000001 328.1129 198.16421 326.55693 206.71127 C 325.14293000000004 214.47878 326.22262 223.08627 330.81443 229.66641 C 333.2493450758617 233.0390307331617 336.5123277664339 235.72723731641872 340.28860000000003 237.47170000000003 C 344.22603000000004 239.40514000000002 348.42614000000003 240.78735000000003 352.24077000000005 242.97339000000002 C 358.00852000000003 246.27871000000002 363.61428000000006 253.13222000000002 361.8075400000001 260.26433000000003 C 361.420213609563 261.82234786636394 360.6557783772078 263.26124437290855 359.5815400000001 264.45433 C 358.29089000000005 265.88708 355.9628400000001 263.99378 357.25689000000006 262.55725 C 359.5297100000001 260.0342 359.44020000000006 256.66933 358.22895000000005 253.65702000000002 C 356.78866067227244 250.26262423890984 354.2382236081863 247.45803763364088 350.9954900000001 245.70275 C 347.0024900000001 243.41981 342.5940300000001 242.01065 338.5014900000001 239.93119000000002 C 334.5842621569086 238.0316126536529 331.18398160315746 235.21371509230917 328.5900600000001 231.71734 C 323.6918400000001 224.91034000000002 322.2266800000001 216.05149 323.3375600000001 207.85634000000002 C 324.5397000000001 198.98793 329.0962500000001 190.92914000000002 334.8082100000001 184.17589 C 341.0244200000001 176.82645000000002 348.6601100000001 170.60535000000002 356.4606700000001 165.01653000000002 C 364.83073000000013 159.01968000000002 374.0780100000001 153.94975000000002 384.3107500000001 152.11604000000003 C 393.1809100000001 150.52650000000003 402.7954900000001 151.50513000000004 410.55207000000007 156.33898000000002 C 417.79233000000005 160.85107000000002 423.3443900000001 168.61275000000003 423.8965600000001 177.28568 C 424.30019198817547 185.32069387586094 420.33204390720454 192.94704198742767 413.5202900000001 197.22774 C 410.08759520182747 199.2819276224064 406.09658606270426 200.20651607005922 402.1102900000001 199.87107 C 397.8486900000001 199.59828000000002 393.58301000000006 198.29329 389.2942000000001 198.65559 C 387.3534506452489 198.7734005974751 385.50400098700004 199.5206483746654 384.0261300000001 200.78409 C 382.56025000000005 202.04483 380.8132100000001 199.60339 382.2670500000001 198.35299999999998 Z" stroke-linecap="round"/>
  </g>
</svg>